HIERARCHY
ROOT hip
{
  OFFSET 0 0 0
  CHANNELS 6 Xposition Yposition Zposition Zrotation Yrotation Xrotation
  JOINT abdomen
  {
    OFFSET 0 20.6881 -0.73152
    CHANNELS 3 Zrotation Xrotation Yrotation
    JOINT chest
    {
      OFFSET 0 11.7043 -0.48768
      CHANNELS 3 Zrotation Xrotation Yrotation
      JOINT neck
      {
        OFFSET 0 22.1894 -2.19456
        CHANNELS 3 Zrotation Xrotation Yrotation
        JOINT head
        {
          OFFSET -0.24384 7.07133 1.2192
          CHANNELS 3 Zrotation Xrotation Yrotation
          JOINT leftEye
          {
            OFFSET 4.14528 8.04674 8.04672
            CHANNELS 3 Zrotation Xrotation Yrotation
            End Site
            {
              OFFSET 1 0 0
            }
          }
          JOINT rightEye
          {
            OFFSET -3.6576 8.04674 8.04672
            CHANNELS 3 Zrotation Xrotation Yrotation
            End Site
            {
              OFFSET 1 0 0
            }
          }
        }
      }
      JOINT rCollar
      {
        OFFSET -2.68224 19.2634 -4.8768
        CHANNELS 3 Zrotation Xrotation Yrotation
        JOINT rShldr
        {
          OFFSET -8.77824 -1.95073 1.46304
          CHANNELS 3 Zrotation Xrotation Yrotation
          JOINT rForeArm
          {
            OFFSET -28.1742 -1.7115 0.48768
            CHANNELS 3 Zrotation Xrotation Yrotation
            JOINT rHand
            {
              OFFSET -22.5879 0.773209 7.07136
              CHANNELS 3 Zrotation Xrotation Yrotation
              JOINT rThumb1
              {
                OFFSET -1.2192 -0.487915 3.41376
                CHANNELS 3 Zrotation Xrotation Yrotation
                JOINT rThumb2
                {
                  OFFSET -3.37035 -0.52449 3.41376
                  CHANNELS 3 Zrotation Xrotation Yrotation
                  End Site
                  {
                    OFFSET -1.78271 -1.18214 1.43049
                  }
                }
              }
              JOINT rIndex1
              {
                OFFSET -7.75947 0.938293 5.60832
                CHANNELS 3 Zrotation Xrotation Yrotation
                JOINT rIndex2
                {
                  OFFSET -2.54057 -0.884171 1.56538
                  CHANNELS 3 Zrotation Xrotation Yrotation
                  End Site
                  {
                    OFFSET -1.62519 -0.234802 1.16502
                  }
                }
              }
              JOINT rMid1
              {
                OFFSET -8.24714 1.18213 3.41376
                CHANNELS 3 Zrotation Xrotation Yrotation
                JOINT rMid2
                {
                  OFFSET -3.10165 -0.590103 1.0647
                  CHANNELS 3 Zrotation Xrotation Yrotation
                  End Site
                  {
                    OFFSET -2.48547 -0.328903 0.83742
                  }
                }
              }
              JOINT rRing1
              {
                OFFSET -8.82822 0.546677 1.51678
                CHANNELS 3 Zrotation Xrotation Yrotation
                JOINT rRing2
                {
                  OFFSET -2.60934 -0.819778 -0.0198488
                  CHANNELS 3 Zrotation Xrotation Yrotation
                  End Site
                  {
                    OFFSET -2.33842 -0.294052 0.168128
                  }
                }
              }
              JOINT rPinky1
              {
                OFFSET -8.27202 -0.0477905 -0.4584
                CHANNELS 3 Zrotation Xrotation Yrotation
                JOINT rPinky2
                {
                  OFFSET -1.82734 -0.647385 -0.700984
                  CHANNELS 3 Zrotation Xrotation Yrotation
                  End Site
                  {
                    OFFSET -1.69225 -0.51767 -0.607171
                  }
                }
              }
            }
          }
        }
      }
      JOINT lCollar
      {
        OFFSET 2.68224 19.2634 -4.8768
        CHANNELS 3 Zrotation Xrotation Yrotation
        JOINT lShldr
        {
          OFFSET 8.77824 -1.95073 1.46304
          CHANNELS 3 Zrotation Xrotation Yrotation
          JOINT lForeArm
          {
            OFFSET 28.1742 -1.7115 0.48768
            CHANNELS 3 Zrotation Xrotation Yrotation
            JOINT lHand
            {
              OFFSET 22.5879 0.773209 7.07136
              CHANNELS 3 Zrotation Xrotation Yrotation
              JOINT lThumb1
              {
                OFFSET 1.2192 -0.487915 3.41376
                CHANNELS 3 Zrotation Xrotation Yrotation
                JOINT lThumb2
                {
                  OFFSET 3.37035 -0.52449 3.41376
                  CHANNELS 3 Zrotation Xrotation Yrotation
                  End Site
                  {
                    OFFSET 1.78271 -1.18214 1.43049
                  }
                }
              }
              JOINT lIndex1
              {
                OFFSET 7.75947 0.938293 5.60832
                CHANNELS 3 Zrotation Xrotation Yrotation
                JOINT lIndex2
                {
                  OFFSET 2.54057 -0.884171 1.56538
                  CHANNELS 3 Zrotation Xrotation Yrotation
                  End Site
                  {
                    OFFSET 1.62519 -0.234802 1.16502
                  }
                }
              }
              JOINT lMid1
              {
                OFFSET 8.24714 1.18213 3.41376
                CHANNELS 3 Zrotation Xrotation Yrotation
                JOINT lMid2
                {
                  OFFSET 3.10165 -0.590103 1.0647
                  CHANNELS 3 Zrotation Xrotation Yrotation
                  End Site
                  {
                    OFFSET 2.48547 -0.328903 0.83742
                  }
                }
              }
              JOINT lRing1
              {
                OFFSET 8.82822 0.546677 1.51678
                CHANNELS 3 Zrotation Xrotation Yrotation
                JOINT lRing2
                {
                  OFFSET 2.60934 -0.819778 -0.0198488
                  CHANNELS 3 Zrotation Xrotation Yrotation
                  End Site
                  {
                    OFFSET 2.33842 -0.294052 0.168128
                  }
                }
              }
              JOINT lPinky1
              {
                OFFSET 8.27202 -0.0477905 -0.4584
                CHANNELS 3 Zrotation Xrotation Yrotation
                JOINT lPinky2
                {
                  OFFSET 1.82734 -0.647385 -0.700984
                  CHANNELS 3 Zrotation Xrotation Yrotation
                  End Site
                  {
                    OFFSET 1.69225 -0.51767 -0.607171
                  }
                }
              }
            }
          }
        }
      }
    }
  }
  JOINT rButtock
  {
    OFFSET -8.77824 4.35084 1.2192
    CHANNELS 3 Zrotation Xrotation Yrotation
    JOINT rThigh
    {
      OFFSET 0 -1.70687 -2.19456
      CHANNELS 3 Zrotation Xrotation Yrotation
      JOINT rShin
      {
        OFFSET 0 -36.8199 0.73152
        CHANNELS 3 Zrotation Xrotation Yrotation
        JOINT rFoot
        {
          OFFSET 0.73152 -45.1104 -5.12064
          CHANNELS 3 Zrotation Xrotation Yrotation
          End Site
          {
            OFFSET -1.1221 -3.69964 12.103
          }
        }
      }
    }
  }
  JOINT lButtock
  {
    OFFSET 8.77824 4.35084 1.2192
    CHANNELS 3 Zrotation Xrotation Yrotation
    JOINT lThigh
    {
      OFFSET 0 -1.70687 -2.19456
      CHANNELS 3 Zrotation Xrotation Yrotation
      JOINT lShin
      {
        OFFSET 0 -36.8199 0.73152
        CHANNELS 3 Zrotation Xrotation Yrotation
        JOINT lFoot
        {
          OFFSET -0.73152 -45.1104 -5.12064
          CHANNELS 3 Zrotation Xrotation Yrotation
          End Site
          {
            OFFSET 1.1221 -3.69964 12.103
          }
        }
      }
    }
  }
}
MOTION
Frames:	6
Frame Time:	0.00833333
-3.08104 84.2564 35.7994 0.0 0.0 0.0 -1.24151 -0.0039812 -0.0340788 -0.342494 -0.00249266 -0.0593271 -2.6984e-14 -1.59028e-15 -3.72722e-17 -8.09519e-14 3.18055e-15 -7.60973e-17 -0.0 0.0 0.0 -0.0 0.0 0.0 -1.36186e-14 -1.00945e-17 1.98785e-16 -2.80391e-13 -4.28629e-16 -1.98785e-16 -4.86287e-12 1.45033e-12 5.08889e-14 -5.57118e-11 -1.50366e-12 -1.59028e-13 -1.31407e-10 -1.15837e-13 -2.16278e-13 -2.26946e-10 -2.00375e-13 -3.53042e-13 -1.31399e-10 -1.12512e-13 -2.25819e-13 7.73091 5.47488 0.417314 -1.31407e-10 -1.15593e-13 -2.09917e-13 2.90554 0.965183 0.102902 -1.31397e-10 -1.15295e-13 -2.07531e-13 10.2786 0.731801 0.0259123 -1.31411e-10 -1.15295e-13 -1.97194e-13 2.22167 -0.733487 -0.20892 -1.37152e-14 -1.12593e-17 -1.98785e-16 -2.85913e-13 -2.04997e-16 -1.98785e-15 -4.8746e-12 -1.46166e-12 3.18055e-14 -5.57171e-11 1.42089e-12 -1.20861e-13 -1.31437e-10 -8.89646e-14 -2.00375e-13 -2.26982e-10 -1.55847e-13 -3.53042e-13 -1.31442e-10 -8.5875e-14 -1.94014e-13 -7.73091 5.47488 -0.417314 -1.31438e-10 -8.83598e-14 -2.03556e-13 -2.90554 0.965183 -0.102902 -1.31441e-10 -8.84592e-14 -2.06736e-13 -10.2786 0.731801 -0.0259123 -1.31436e-10 -8.8658e-14 -2.19458e-13 -2.22167 -0.733487 0.20892 -2.03217e-16 0.0 -3.88251e-19 -0.453842 -1.92099 -0.00952708 -0.00915559 -2.07857 -0.075552 -0.487451 3.99699 0.136652 2.03217e-16 0.0 3.88251e-19 -1.43728 -5.97115 0.129663 -0.00126418 5.25795 -0.0454133 0.507828 0.710745 -0.0722756
-4.15493 83.8005 35.0752 -0.9075 -0.2174 1.4044 -1.501 0.401456 -0.152993 -0.174157 -1.45489 -0.0830347 -0.0632913 1.14169 -0.263256 1.01678 3.5975 -0.628127 -0.0 0.0 0.0 -0.0 0.0 0.0 -1.19948e-14 -9.67559e-15 1.72733e-15 23.3728 5.49694 -4.87486 -6.98562 -4.02364 9.83131 0.0584816 5.36865 0.742602 -1.00102e-10 -1.77521e-11 1.58915e-11 -1.72957e-10 -3.08588e-11 2.76254e-11 -1.00096e-10 -1.77465e-11 1.5883e-11 7.73091 5.47488 0.417314 -1.00103e-10 -1.77493e-11 1.5899e-11 2.90554 0.965183 0.102902 -1.00093e-10 -1.77495e-11 1.59015e-11 10.2786 0.731801 0.0259123 -1.00106e-10 -1.77505e-11 1.5913e-11 2.22167 -0.733487 -0.20892 -1.21211e-14 -9.67824e-15 1.35228e-15 -23.6341 5.78387 2.69855 5.89128 -3.12264 -8.66587 -0.00676484 1.82486 -0.255998 -9.21202e-11 -8.23482e-11 1.87594e-11 -1.58872e-10 -1.42511e-10 3.25062e-11 -9.21261e-11 -8.23447e-11 1.87729e-11 -7.73091 5.47488 -0.417314 -9.21212e-11 -8.23485e-11 1.87561e-11 -2.90554 0.965183 -0.102902 -9.21255e-11 -8.23487e-11 1.87548e-11 -10.2786 0.731801 -0.0259123 -9.21189e-11 -8.23489e-11 1.87448e-11 -2.22167 -0.733487 0.20892 -2.03217e-16 0.0 -3.88251e-19 -6.23688 -2.18616 -0.01038 -0.00640111 -1.69468 -0.0556389 -0.233365 3.87674 0.0976239 2.03217e-16 0.0 3.88251e-19 1.0472 -6.95295 -1.34554 -0.0115329 9.56188 -0.157864 0.596971 -3.98966 3.15696
-4.15362 83.7975 35.0628 -0.9042 -0.2117 1.4495 -1.77634 0.833076 -0.278976 0.00125441 -2.99145 -0.108364 -0.114595 2.34585 -0.540797 2.17223 7.39924 -1.29842 -0.0 0.0 0.0 -0.0 0.0 0.0 -1.05306e-14 -1.99558e-14 3.33896e-15 49.1114 11.1763 -10.1789 -12.8893 -7.88257 20.3765 -0.0335908 11.0398 1.54945 -6.67712e-11 -3.92492e-11 3.71831e-11 -1.15422e-10 -6.82559e-11 6.45844e-11 -6.67671e-11 -3.92411e-11 3.71757e-11 7.73091 5.47488 0.417314 -6.67737e-11 -3.92436e-11 3.71918e-11 2.90554 0.965183 0.102902 -6.67641e-11 -3.92444e-11 3.71945e-11 10.2786 0.731801 0.0259123 -6.67734e-11 -3.92466e-11 3.72073e-11 2.22167 -0.733487 -0.20892 -1.06904e-14 -1.99602e-14 2.98488e-15 -49.2208 11.8569 5.64329 11.1045 -6.18621 -17.9092 0.00384346 3.75022 -0.526974 -4.46118e-11 -1.66183e-10 3.8011e-11 -7.65903e-11 -2.87619e-10 6.58184e-11 -4.46181e-11 -1.66179e-10 3.80321e-11 -7.73091 5.47488 -0.417314 -4.46127e-11 -1.66184e-10 3.80074e-11 -2.90554 0.965183 -0.102902 -4.4618e-11 -1.66184e-10 3.80082e-11 -10.2786 0.731801 -0.0259123 -4.46096e-11 -1.66184e-10 3.80013e-11 -2.22167 -0.733487 0.20892 -2.03217e-16 0.0 -3.88251e-19 -12.3503 -2.46652 -0.0112839 -0.00377986 -1.28885 -0.0346027 0.0350031 3.74966 0.0563863 2.03217e-16 0.0 3.88251e-19 3.61627 -7.98305 -2.91261 -0.00340801 14.1114 -0.280825 1.27269 -8.9115 6.63664
-4.14817 83.7957 35.0544 -0.8858 -0.2056 1.4807 -2.01494 1.21231 -0.390898 0.158895 -4.35968 -0.130748 -0.158353 3.42477 -0.791025 3.29055 10.7873 -1.91451 -0.0 0.0 0.0 -0.0 0.0 0.0 -8.74716e-15 -2.90066e-14 4.78442e-15 72.9858 16.0045 -15.158 -16.959 -10.6505 29.9885 -0.256423 16.0949 2.30856 -3.74929e-11 -5.30245e-11 4.81072e-11 -6.49795e-11 -9.21756e-11 8.35822e-11 -3.749e-11 -5.30146e-11 4.81007e-11 7.73091 5.47488 0.417314 -3.74961e-11 -5.30168e-11 4.81168e-11 2.90554 0.965183 0.102902 -3.7487e-11 -5.3018e-11 4.81195e-11 10.2786 0.731801 0.0259123 -3.7494e-11 -5.3021e-11 4.81333e-11 2.22167 -0.733487 -0.20892 -8.9328e-15 -2.90122e-14 4.45441e-15 -72.5956 17.194 8.43389 14.9222 -8.51236 -26.2698 0.0288156 5.47414 -0.77112 -1.34867e-11 -2.46867e-10 5.66789e-11 -2.26503e-11 -4.2722e-10 9.82246e-11 -1.34935e-11 -2.46862e-10 5.67066e-11 -7.73091 5.47488 -0.417314 -1.34874e-11 -2.46869e-10 5.66753e-11 -2.90554 0.965183 -0.102902 -1.34938e-11 -2.46869e-10 5.66778e-11 -10.2786 0.731801 -0.0259123 -1.34839e-11 -2.46869e-10 5.66733e-11 -2.22167 -0.733487 0.20892 -2.03217e-16 0.0 -3.88251e-19 -17.803 -2.71651 -0.0120874 -0.00169263 -0.926897 -0.0158411 0.274312 3.63624 0.0196008 2.03217e-16 0.0 3.88251e-19 5.86299 -8.89731 -4.31687 0.0211715 18.1694 -0.396329 2.39234 -13.2177 9.85606
-4.14353 83.7948 35.0502 -0.8711 -0.199 1.4972 -2.16535 1.46058 -0.467591 0.274716 -5.30709 -0.145507 -0.205174 4.1909 -0.971799 4.14648 13.1459 -2.36665 -0.0 0.0 0.0 -0.0 0.0 0.0 -6.1657e-15 -3.49838e-14 5.81445e-15 90.1494 19.1689 -18.8143 -19.2099 -12.0494 36.7947 -0.496654 19.6201 2.87172 -1.83454e-11 -4.74952e-11 3.31128e-11 -3.22663e-11 -8.24018e-11 5.7677e-11 -1.83435e-11 -4.74853e-11 3.31064e-11 7.73091 5.47488 0.417314 -1.8349e-11 -4.7487e-11 3.31223e-11 2.90554 0.965183 0.102902 -1.83404e-11 -4.74885e-11 3.31247e-11 10.2786 0.731801 0.0259123 -1.83464e-11 -4.74916e-11 3.31382e-11 2.22167 -0.733487 -0.20892 -6.35811e-15 -3.49894e-14 5.51627e-15 -89.2244 20.8415 10.517 17.1607 -9.81194 -32.1633 0.0552897 6.6949 -0.945255 -2.33198e-11 -3.19674e-10 7.38875e-11 -3.95633e-11 -5.53057e-10 1.28366e-10 -2.33274e-11 -3.1967e-10 7.39193e-11 -7.73091 5.47488 -0.417314 -2.33205e-11 -3.19677e-10 7.38843e-11 -2.90554 0.965183 -0.102902 -2.33276e-11 -3.19677e-10 7.38875e-11 -10.2786 0.731801 -0.0259123 -2.3317e-11 -3.19678e-10 7.38843e-11 -2.22167 -0.733487 0.20892 -2.03217e-16 0.0 -3.88251e-19 -21.6036 -2.89053 -0.0126387 -0.000375937 -0.674639 -0.00274871 0.44132 3.557 -0.00607809 2.03217e-16 0.0 3.88251e-19 7.41176 -9.53745 -5.29811 0.0485801 20.9994 -0.481608 3.46963 -16.1516 12.1904
-4.14734 83.7937 35.0464 -0.8884 -0.1894 1.5114 -2.19001 1.52335 -0.495481 0.333429 -5.66591 -0.149477 -0.274971 4.52031 -1.05427 4.56714 14.071 -2.56793 -0.0 0.0 0.0 -0.0 0.0 0.0 -2.19537e-15 -3.64159e-14 6.55058e-15 96.9695 20.3379 -20.2723 -19.9718 -12.4491 39.4565 -0.611812 21.0121 3.10375 -1.1877e-11 -8.73684e-12 -2.94859e-11 -2.18993e-11 -1.45801e-11 -5.0752e-11 -1.18753e-11 -8.73021e-12 -2.94933e-11 7.73091 5.47488 0.417314 -1.18799e-11 -8.73113e-12 -2.9478e-11 2.90554 0.965183 0.102902 -1.18722e-11 -8.73255e-12 -2.94768e-11 10.2786 0.731801 0.0259123 -1.18794e-11 -8.73464e-12 -2.94655e-11 2.22167 -0.733487 -0.20892 -2.36593e-15 -3.64193e-14 6.30209e-15 -95.8254 22.2389 11.3799 17.9492 -10.2325 -34.4761 0.0682872 7.20378 -1.0182 -1.0922e-10 -3.92077e-10 9.85828e-11 -1.88007e-10 -6.77904e-10 1.7201e-10 -1.09229e-10 -3.92072e-10 9.86155e-11 -7.73091 5.47488 -0.417314 -1.09221e-10 -3.9208e-10 9.85811e-11 -2.90554 0.965183 -0.102902 -1.09228e-10 -3.92081e-10 9.85832e-11 -10.2786 0.731801 -0.0259123 -1.09218e-10 -3.92081e-10 9.85794e-11 -2.22167 -0.733487 0.20892 -2.03217e-16 0.0 -3.88251e-19 -23.0915 -2.95821 -0.0128337 0.000112812 -0.57588 0.00241786 0.507374 3.5255 -0.0162352 2.03217e-16 0.0 3.88251e-19 8.03546 -9.805 -5.67628 0.0614382 22.1111 -0.517238 3.95371 -17.2859 13.1152
